<?xml version="1.0" standalone="no"?><!DOCTYPE svg PUBLIC "-//W3C//DTD SVG 1.1//EN" "http://www.w3.org/Graphics/SVG/1.1/DTD/svg11.dtd"><svg t="1624532307349" class="icon" viewBox="0 0 1024 1024" version="1.1" xmlns="http://www.w3.org/2000/svg" p-id="1604" xmlns:xlink="http://www.w3.org/1999/xlink" width="200" height="200"><defs><style type="text/css"></style></defs><path d="M686.4 200c36.8-54.4 60.8-116.8 67.2-174.4 112 59.2 150.4 129.6 150.4 233.6 0 27.2-6.4 54.4-19.2 78.4" fill="#FFFFFF" p-id="1605"></path><path d="M884.8 361.6c-3.2 0-8-1.6-11.2-3.2-12.8-6.4-16-20.8-9.6-33.6 11.2-20.8 17.6-43.2 17.6-65.6 0-88-30.4-145.6-107.2-193.6-11.2 49.6-33.6 102.4-65.6 148.8-8 11.2-24 14.4-35.2 6.4-11.2-8-14.4-24-6.4-35.2 35.2-52.8 57.6-110.4 62.4-163.2 0-8 6.4-16 12.8-19.2 8-3.2 16-3.2 24 0C880 64 929.6 140.8 929.6 259.2c0 30.4-8 60.8-22.4 89.6-4.8 8-14.4 12.8-22.4 12.8z" fill="#05498F" p-id="1606"></path><path d="M337.6 200c-36.8-54.4-60.8-116.8-67.2-174.4-112 59.2-150.4 129.6-150.4 233.6 0 27.2 6.4 54.4 19.2 78.4" fill="#FFFFFF" p-id="1607"></path><path d="M139.2 361.6c-9.6 0-17.6-4.8-22.4-12.8-14.4-28.8-22.4-59.2-22.4-89.6C94.4 140.8 144 64 259.2 3.2c8-3.2 16-3.2 24 0s12.8 11.2 12.8 19.2c4.8 52.8 27.2 110.4 62.4 163.2 8 11.2 4.8 27.2-6.4 35.2-11.2 8-27.2 4.8-35.2-6.4-32-48-54.4-99.2-65.6-148.8-76.8 48-107.2 104-107.2 193.6 0 22.4 6.4 44.8 17.6 65.6 6.4 12.8 1.6 27.2-9.6 33.6-4.8 1.6-8 3.2-12.8 3.2z" fill="#05498F" p-id="1608"></path><path d="M969.6 630.4c0 104-41.6 185.6-112 243.2-81.6 65.6-200 100.8-337.6 100.8-123.2 0-233.6-27.2-316.8-80-91.2-59.2-148.8-147.2-148.8-264C54.4 497.6 128 360 240 268.8c78.4-62.4 174.4-102.4 278.4-102.4 145.6 0 272 78.4 352 185.6 62.4 81.6 99.2 182.4 99.2 278.4z" fill="#FFFFFF" p-id="1609"></path><path d="M520 166.4c145.6 0 272 78.4 352 185.6 60.8 81.6 97.6 180.8 97.6 278.4 0 104-41.6 185.6-112 243.2-81.6 65.6-200 100.8-337.6 100.8-123.2 0-233.6-27.2-316.8-80-91.2-59.2-148.8-147.2-148.8-264C54.4 497.6 128 360 240 268.8c78.4-62.4 174.4-102.4 280-102.4m0-49.6c-110.4 0-217.6 40-310.4 113.6C83.2 331.2 4.8 484.8 4.8 630.4c0 126.4 60.8 235.2 171.2 305.6 91.2 57.6 209.6 88 344 88 152 0 278.4-38.4 368-112 84.8-70.4 129.6-168 129.6-281.6 0-105.6-38.4-216-107.2-307.2-96-132.8-238.4-206.4-390.4-206.4z" fill="#05498F" p-id="1610"></path><path d="MNaN NaNaNaN NaN NaN 1 0 NaN NaN NaN NaN NaN 1 0 NaN NaNZ" fill="#05498F" p-id="1611"></path><path d="M825.6 435.2c-8 0-16-3.2-20.8-11.2-49.6-72-126.4-131.2-217.6-163.2-12.8-4.8-19.2-19.2-14.4-32 4.8-12.8 19.2-19.2 32-14.4 100.8 36.8 187.2 100.8 241.6 182.4 8 11.2 4.8 27.2-6.4 35.2-4.8 1.6-9.6 3.2-14.4 3.2z" fill="#05498F" p-id="1612"></path><path d="M550.4 470.4h-73.6c-48 0-76.8 51.2-52.8 92.8l36.8 38.4c27.2 25.6 80 25.6 107.2 0l36.8-38.4c24-40-6.4-92.8-54.4-92.8z" fill="#05498F" p-id="1613"></path><path d="M441.6 718.4c-54.4 0-97.6-43.2-97.6-97.6 0-14.4 11.2-25.6 25.6-25.6 14.4 0 25.6 11.2 25.6 25.6 0 27.2 20.8 48 48 48s48-20.8 48-48c0-14.4 11.2-25.6 25.6-25.6s25.6 11.2 25.6 25.6c-3.2 54.4-48 97.6-100.8 97.6z" fill="#05498F" p-id="1614"></path><path d="M587.2 718.4c-54.4 0-97.6-43.2-97.6-97.6 0-14.4 11.2-25.6 25.6-25.6 14.4 0 25.6 11.2 25.6 25.6 0 27.2 20.8 48 48 48s48-20.8 48-48c0-14.4 11.2-25.6 25.6-25.6s25.6 11.2 25.6 25.6c-1.6 54.4-46.4 97.6-100.8 97.6z" fill="#05498F" p-id="1615"></path></svg>